<svg width="20" height="20" viewBox="0 0 20 20" fill="none" xmlns="http://www.w3.org/2000/svg">
<g clip-path="url(#clip0_846_17143)">
<path d="M13.75 2.5C16.2817 2.5 18.3334 4.58333 18.3334 7.5C18.3334 13.3333 12.0834 16.6667 10 17.9167C7.91669 16.6667 1.66669 13.3333 1.66669 7.5C1.66669 4.58333 3.75002 2.5 6.25002 2.5C7.80002 2.5 9.16669 3.33333 10 4.16667C10.8334 3.33333 12.2 2.5 13.75 2.5ZM10.7784 15.5033C11.5125 15.04 12.175 14.5792 12.795 14.0858C15.2792 12.1108 16.6667 9.9525 16.6667 7.5C16.6667 5.53333 15.3859 4.16667 13.75 4.16667C12.8534 4.16667 11.8834 4.64167 11.1784 5.345L10 6.52333L8.82169 5.345C8.11669 4.64167 7.14669 4.16667 6.25002 4.16667C4.63335 4.16667 3.33335 5.54667 3.33335 7.5C3.33335 9.95333 4.72169 12.1108 7.20419 14.0858C7.82502 14.5792 8.48752 15.04 9.22169 15.5025C9.47085 15.66 9.71752 15.8108 10 15.9792C10.2825 15.8108 10.5292 15.66 10.7784 15.5033V15.5033Z" fill="white"/>
</g>
<defs>
<clipPath id="clip0_846_17143">
<rect width="20" height="20" fill="white"/>
</clipPath>
</defs>
</svg>
