<svg width="40" height="40" viewBox="0 0 40 40" fill="none" xmlns="http://www.w3.org/2000/svg">
<rect width="40" height="40" rx="20" fill="url(#paint0_linear_846_17266)"/>
<path d="M26.536 19.1906L16.511 13.1448C16.3616 13.0547 16.1898 13.0048 16.0136 13.0003C15.8374 12.9959 15.6632 13.037 15.5091 13.1194C15.3549 13.2018 15.2264 13.3225 15.1369 13.4691C15.0474 13.6156 15.0001 13.7825 15 13.9526V26.0449C14.9993 26.2153 15.046 26.3828 15.1353 26.5299C15.2245 26.6769 15.3531 26.7981 15.5076 26.8807C15.662 26.9633 15.8366 27.0044 16.0132 26.9996C16.1897 26.9948 16.3616 26.9443 16.511 26.8535L26.536 20.8077C26.678 20.7219 26.7951 20.6027 26.8763 20.4613C26.9574 20.3198 27 20.1608 27 19.9991C27 19.8375 26.9574 19.6784 26.8763 19.537C26.7951 19.3956 26.678 19.2764 26.536 19.1906V19.1906Z" fill="white"/>
<defs>
<linearGradient id="paint0_linear_846_17266" x1="2.32831e-09" y1="20" x2="40" y2="25" gradientUnits="userSpaceOnUse">
<stop stop-color="#0F853D"/>
<stop offset="1" stop-color="#07652C"/>
</linearGradient>
</defs>
</svg>
