<svg width="20" height="20" viewBox="0 0 20 20" fill="none" xmlns="http://www.w3.org/2000/svg">
<g clip-path="url(#clip0_846_17139)">
<path d="M4.16668 1.66666H15.8333C16.0544 1.66666 16.2663 1.75445 16.4226 1.91073C16.5789 2.06701 16.6667 2.27898 16.6667 2.49999V18.4525C16.6668 18.527 16.6469 18.6002 16.6091 18.6644C16.5713 18.7286 16.517 18.7815 16.4518 18.8176C16.3866 18.8536 16.3129 18.8716 16.2385 18.8695C16.164 18.8675 16.0914 18.8455 16.0283 18.8058L10 15.025L3.97168 18.805C3.90865 18.8446 3.83617 18.8666 3.76176 18.8687C3.68736 18.8708 3.61375 18.8529 3.54859 18.8169C3.48343 18.7809 3.4291 18.7282 3.39125 18.6641C3.35339 18.6 3.3334 18.5269 3.33334 18.4525V2.49999C3.33334 2.27898 3.42114 2.06701 3.57742 1.91073C3.7337 1.75445 3.94566 1.66666 4.16668 1.66666Z" fill="white"/>
</g>
<defs>
<clipPath id="clip0_846_17139">
<rect width="20" height="20" fill="white"/>
</clipPath>
</defs>
</svg>
